# xmcd
#
# Track frame offsets:
#	150
#	11170
#	24771
#	35896
#	50374
#	65617
#	77333
#	92099
#	108068
#	124239
#
# Disc length: 1804 seconds
#
# Revision: 0
# Processed by: cddbd v1.4PL0 Copyright (c) Steve Scherf et al.
# Submitted via: dBpowerAMP V4.0
#
DISCID=75070a0a
DTITLE=Buddy Quinn - I Need an Angel
DYEAR=1900
DGENRE=Country
TTITLE0=I Need an Angel
TTITLE1=Give It Up or Get It On (Log Truck Song)
TTITLE2=Rivertown
TTITLE3=First One to Go
TTITLE4=Forever's Here to Stay
TTITLE5=Loneliest Man in Town
TTITLE6=Pictures and Memories
TTITLE7=Fineline
TTITLE8=Runnin'
TTITLE9=It Takes All Night Long
EXTD=
EXTT0=
EXTT1=
EXTT2=
EXTT3=
EXTT4=
EXTT5=
EXTT6=
EXTT7=
EXTT8=
EXTT9=
PLAYORDER=
